<svg id="svg" version="1.1" width="400" height="400" xmlns="http://www.w3.org/2000/svg" xmlns:xlink="http://www.w3.org/1999/xlink" style="display: block;"><g id="svgg"><path id="path0" d="M166.000 1.258 C 161.325 1.796,157.275 2.565,157.000 2.965 C 156.725 3.365,154.268 3.991,151.540 4.356 C 148.813 4.721,146.135 5.465,145.590 6.010 C 145.046 6.554,143.367 7.000,141.859 7.000 C 140.351 7.000,138.871 7.399,138.570 7.887 C 138.269 8.374,136.487 9.061,134.612 9.413 C 131.560 9.986,127.380 11.610,122.967 13.937 C 122.124 14.382,119.987 15.064,118.217 15.452 C 116.448 15.841,115.000 16.573,115.000 17.079 C 115.000 17.586,114.325 18.000,113.500 18.000 C 112.675 18.000,112.000 18.450,112.000 19.000 C 112.000 19.550,111.521 20.000,110.936 20.000 C 109.169 20.000,96.781 26.219,95.000 28.000 C 94.277 28.723,90.750 30.898,89.000 31.700 C 88.175 32.079,86.874 33.007,86.110 33.763 C 85.345 34.519,83.545 35.891,82.110 36.811 C 78.134 39.360,77.097 40.193,72.849 44.250 C 70.690 46.313,68.487 48.000,67.954 48.000 C 66.788 48.000,49.000 65.775,49.000 66.941 C 49.000 67.391,47.313 69.533,45.250 71.702 C 40.085 77.134,37.000 81.213,37.000 82.610 C 37.000 83.257,36.325 84.045,35.500 84.362 C 34.675 84.678,34.000 85.589,34.000 86.385 C 34.000 87.182,33.654 87.983,33.232 88.167 C 32.090 88.662,26.000 98.490,26.000 99.838 C 26.000 100.477,25.586 101.000,25.079 101.000 C 24.573 101.000,23.862 102.350,23.500 104.000 C 23.138 105.650,22.463 107.000,22.000 107.000 C 21.537 107.000,20.862 108.350,20.500 110.000 C 20.138 111.650,19.537 113.000,19.165 113.000 C 18.793 113.000,17.864 114.463,17.102 116.250 C 16.340 118.037,14.880 121.388,13.858 123.695 C 12.836 126.002,12.000 128.815,12.000 129.945 C 12.000 131.075,11.608 132.000,11.128 132.000 C 10.648 132.000,9.953 133.890,9.584 136.200 C 9.215 138.511,8.563 140.873,8.136 141.450 C 6.563 143.578,4.218 153.332,1.992 167.000 C -0.588 182.847,0.226 236.827,3.061 237.833 C 3.577 238.017,4.020 239.817,4.044 241.833 C 4.068 243.850,4.736 247.300,5.529 249.500 C 6.321 251.700,6.977 254.287,6.985 255.250 C 6.993 256.212,7.450 257.000,8.000 257.000 C 8.550 257.000,9.002 258.012,9.004 259.250 C 9.008 261.260,11.688 269.534,14.854 277.315 C 15.484 278.863,16.000 280.551,16.000 281.065 C 16.000 281.579,16.450 282.000,17.000 282.000 C 17.550 282.000,18.000 282.873,18.000 283.941 C 18.000 285.009,18.415 286.139,18.923 286.452 C 19.431 286.766,20.142 288.368,20.503 290.011 C 20.864 291.655,21.524 293.000,21.971 293.000 C 22.418 293.000,23.066 294.125,23.411 295.500 C 23.756 296.875,24.444 298.000,24.940 298.000 C 25.435 298.000,26.138 299.350,26.500 301.000 C 26.862 302.650,27.552 304.000,28.033 304.000 C 28.513 304.000,29.602 305.467,30.453 307.261 C 31.304 309.054,33.126 311.734,34.500 313.217 C 35.875 314.700,37.000 316.176,37.000 316.497 C 37.000 317.404,41.269 323.270,43.551 325.498 C 44.679 326.599,47.134 329.560,49.007 332.078 C 50.879 334.596,53.810 337.718,55.519 339.015 C 57.229 340.312,59.688 342.771,60.985 344.481 C 62.282 346.190,65.404 349.121,67.922 350.993 C 70.440 352.866,73.401 355.321,74.502 356.449 C 76.669 358.669,82.587 363.000,83.452 363.000 C 83.745 363.000,85.110 363.979,86.486 365.175 C 89.072 367.423,94.640 370.992,99.000 373.196 C 100.375 373.891,101.725 374.727,102.000 375.054 C 102.906 376.132,115.291 382.000,116.660 382.000 C 117.397 382.000,118.000 382.450,118.000 383.000 C 118.000 383.550,118.421 384.000,118.935 384.000 C 119.449 384.000,121.137 384.516,122.685 385.146 C 130.466 388.312,138.740 390.992,140.750 390.996 C 141.988 390.998,143.000 391.450,143.000 392.000 C 143.000 392.550,143.787 393.007,144.750 393.015 C 145.713 393.023,148.300 393.679,150.500 394.471 C 152.700 395.264,156.150 395.932,158.167 395.956 C 160.183 395.980,161.983 396.423,162.167 396.939 C 163.174 399.779,217.256 400.588,233.000 397.999 C 245.230 395.988,250.585 394.862,252.236 393.954 C 253.191 393.429,254.852 393.000,255.927 393.000 C 257.002 393.000,258.144 392.576,258.464 392.058 C 258.785 391.540,261.061 390.813,263.523 390.444 C 265.985 390.075,268.000 389.432,268.000 389.014 C 268.000 388.597,269.800 387.968,272.000 387.616 C 274.200 387.264,276.000 386.532,276.000 385.988 C 276.000 385.445,276.672 385.000,277.493 385.000 C 279.481 385.000,287.000 381.712,287.000 380.844 C 287.000 380.467,288.350 379.862,290.000 379.500 C 291.650 379.138,293.000 378.463,293.000 378.000 C 293.000 377.537,294.350 376.862,296.000 376.500 C 297.650 376.138,299.000 375.427,299.000 374.921 C 299.000 374.414,299.523 374.000,300.162 374.000 C 301.510 374.000,311.338 367.910,311.833 366.768 C 312.017 366.346,312.818 366.000,313.615 366.000 C 314.411 366.000,315.322 365.325,315.638 364.500 C 315.955 363.675,316.743 363.000,317.390 363.000 C 318.787 363.000,322.866 359.915,328.298 354.750 C 330.467 352.688,332.609 351.000,333.059 351.000 C 334.225 351.000,352.000 333.212,352.000 332.046 C 352.000 331.513,353.688 329.310,355.750 327.151 C 359.807 322.903,360.640 321.866,363.189 317.890 C 364.109 316.455,365.456 314.636,366.181 313.848 C 367.734 312.162,369.740 309.110,370.683 307.000 C 371.052 306.175,371.612 305.275,371.927 305.000 C 373.616 303.526,380.000 290.924,380.000 289.064 C 380.000 288.479,380.450 288.000,381.000 288.000 C 381.550 288.000,382.000 287.325,382.000 286.500 C 382.000 285.675,382.342 285.000,382.759 285.000 C 383.176 285.000,384.569 281.962,385.855 278.250 C 387.140 274.538,388.824 270.082,389.596 268.349 C 390.368 266.616,391.000 264.505,391.000 263.658 C 391.000 262.811,391.450 261.840,392.000 261.500 C 392.550 261.160,393.000 259.649,393.000 258.141 C 393.000 256.633,393.462 254.938,394.027 254.373 C 394.591 253.809,395.329 251.019,395.666 248.173 C 396.003 245.328,396.600 243.000,396.993 243.000 C 400.851 243.000,400.769 157.581,396.910 156.167 C 396.409 155.983,395.980 154.408,395.956 152.667 C 395.932 150.925,395.264 147.700,394.471 145.500 C 393.679 143.300,393.023 140.713,393.015 139.750 C 393.007 138.787,392.578 138.000,392.061 138.000 C 391.545 138.000,390.819 135.975,390.448 133.500 C 390.077 131.025,389.432 129.000,389.014 129.000 C 388.597 129.000,387.968 127.200,387.616 125.000 C 387.264 122.800,386.532 121.000,385.988 121.000 C 385.445 121.000,385.000 120.340,385.000 119.534 C 385.000 117.914,381.889 110.796,380.829 109.990 C 380.460 109.709,379.849 108.247,379.471 106.740 C 379.093 105.233,378.382 104.000,377.892 104.000 C 377.401 104.000,377.000 103.357,377.000 102.571 C 377.000 101.786,376.438 100.541,375.750 99.806 C 375.063 99.071,373.628 96.763,372.562 94.678 C 371.496 92.592,369.618 89.801,368.389 88.475 C 367.161 87.149,365.865 85.150,365.510 84.032 C 365.155 82.915,364.446 82.000,363.933 82.000 C 363.420 82.000,362.998 81.438,362.995 80.750 C 362.993 80.063,361.643 78.062,359.995 76.304 C 358.348 74.547,357.000 72.898,357.000 72.641 C 357.000 72.385,354.637 69.607,351.750 66.469 C 339.242 52.877,321.655 37.000,319.106 37.000 C 318.498 37.000,318.000 36.580,318.000 36.067 C 318.000 35.554,317.085 34.845,315.968 34.490 C 314.850 34.135,312.851 32.839,311.525 31.611 C 310.199 30.382,307.408 28.504,305.322 27.438 C 303.237 26.372,300.929 24.938,300.194 24.250 C 299.459 23.563,298.214 23.000,297.429 23.000 C 296.643 23.000,296.000 22.599,296.000 22.108 C 296.000 21.618,294.767 20.907,293.260 20.529 C 291.753 20.151,290.291 19.540,290.010 19.171 C 289.204 18.111,282.086 15.000,280.466 15.000 C 279.660 15.000,279.000 14.555,279.000 14.012 C 279.000 13.468,277.200 12.736,275.000 12.384 C 272.800 12.032,271.000 11.403,271.000 10.986 C 271.000 10.568,268.975 9.923,266.500 9.552 C 264.025 9.181,262.000 8.455,262.000 7.939 C 262.000 7.422,261.212 6.993,260.250 6.985 C 259.288 6.977,256.700 6.321,254.500 5.529 C 252.300 4.736,249.075 4.068,247.333 4.044 C 245.592 4.020,244.017 3.591,243.833 3.090 C 242.827 0.343,185.633 -1.004,166.000 1.258 M323.000 199.000 L 323.000 321.000 201.000 321.000 L 79.000 321.000 79.000 199.000 L 79.000 77.000 201.000 77.000 L 323.000 77.000 323.000 199.000 M121.000 199.500 L 121.000 279.000 200.500 279.000 L 280.000 279.000 280.000 199.500 L 280.000 120.000 200.500 120.000 L 121.000 120.000 121.000 199.500 M232.000 199.000 L 232.000 230.000 201.000 230.000 L 170.000 230.000 170.000 199.000 L 170.000 168.000 201.000 168.000 L 232.000 168.000 232.000 199.000 " stroke="none" fill="#001a4b" fill-rule="evenodd"></path></g></svg>